<svg xmlns="http://www.w3.org/2000/svg" xmlns:xlink="http://www.w3.org/1999/xlink" xmlns:serif="http://www.serif.com/" viewBox="0 0 48 60" version="1.1" xml:space="preserve" style="" x="0px" y="0px" fill-rule="evenodd" clip-rule="evenodd" stroke-linejoin="round" stroke-miterlimit="2"><g transform="matrix(1,0,0,1,-216,-360)"><g transform="matrix(1.02326,0,0,0.985715,142.769,362.614)"><g serif:id="LINE DOT">
<path d="M85.625,22.601C81.995,22.944 77.85,22.441 75.601,21.165C74.254,20.4 73.52,19.342 73.52,18.132C73.52,17.553 73.572,16.987 73.672,16.436C73.771,15.886 74.283,15.523 74.813,15.626C75.343,15.729 75.692,16.26 75.593,16.81C75.515,17.239 75.475,17.681 75.475,18.132C75.475,18.437 75.644,18.688 75.887,18.918C76.272,19.282 76.828,19.573 77.49,19.818C79.551,20.582 82.553,20.835 85.265,20.597C85.445,17.609 87.014,14.979 89.353,13.335C87.916,11.624 85.732,10.536 83.293,10.536C81.487,10.536 79.822,11.132 78.495,12.137C78.059,12.467 77.447,12.368 77.129,11.915C76.811,11.463 76.907,10.828 77.343,10.498C78.073,9.945 78.884,9.492 79.757,9.158C78.63,8.134 77.918,6.631 77.918,4.957C77.918,1.877 80.327,-0.623 83.293,-0.623C86.26,-0.623 88.668,1.877 88.668,4.957C88.668,6.631 87.956,8.135 86.829,9.158C88.543,9.814 90.022,10.932 91.108,12.354C91.232,12.3 91.357,12.249 91.484,12.201C90.357,11.178 89.645,9.674 89.645,8C89.645,4.921 92.054,2.42 95.02,2.42C97.987,2.42 100.395,4.921 100.395,8C100.395,9.674 99.683,11.178 98.557,12.201C98.683,12.249 98.809,12.3 98.933,12.354C100.019,10.932 101.498,9.814 103.212,9.158C102.085,8.135 101.373,6.631 101.373,4.957C101.373,1.877 103.782,-0.623 106.748,-0.623C109.715,-0.623 112.123,1.877 112.123,4.957C112.123,6.631 111.411,8.134 110.284,9.157C113.938,10.556 116.521,14.058 116.521,18.132C116.521,19.342 115.787,20.4 114.44,21.165C112.19,22.441 108.046,22.944 104.416,22.6C104.028,23.292 103.348,23.895 102.415,24.368C100.621,25.276 97.823,25.754 95.02,25.754C92.218,25.754 89.419,25.276 87.626,24.368C86.692,23.895 86.013,23.292 85.625,22.601ZM91.239,14.527C88.839,15.82 87.202,18.308 87.202,21.175C87.202,21.225 87.206,21.273 87.215,21.321C87.219,21.34 87.222,21.36 87.224,21.38C87.334,21.877 87.843,22.22 88.483,22.544C90.067,23.347 92.545,23.725 95.02,23.725C97.495,23.725 99.974,23.347 101.558,22.544C102.197,22.22 102.707,21.877 102.816,21.38C102.819,21.36 102.822,21.34 102.825,21.321C102.834,21.273 102.838,21.225 102.838,21.175C102.838,18.308 101.202,15.82 98.802,14.528C97.68,13.923 96.39,13.58 95.02,13.58C93.651,13.58 92.361,13.923 91.239,14.527ZM83.293,8.507C85.181,8.507 86.713,6.916 86.713,4.957C86.713,2.997 85.181,1.406 83.293,1.406C81.405,1.406 79.873,2.997 79.873,4.957C79.873,6.916 81.405,8.507 83.293,8.507ZM95.02,11.551C96.908,11.551 98.441,9.96 98.441,8C98.441,6.04 96.908,4.449 95.02,4.449C93.132,4.449 91.6,6.04 91.6,8C91.6,9.96 93.132,11.551 95.02,11.551ZM106.748,10.536C104.309,10.536 102.125,11.624 100.688,13.336C103.027,14.979 104.595,17.609 104.775,20.597C107.488,20.835 110.49,20.582 112.551,19.818C113.212,19.573 113.769,19.282 114.154,18.918C114.397,18.688 114.566,18.437 114.566,18.132C114.566,13.923 111.048,10.536 106.748,10.536ZM106.748,8.507C108.636,8.507 110.169,6.916 110.169,4.957C110.169,2.997 108.636,1.406 106.748,1.406C104.86,1.406 103.328,2.997 103.328,4.957C103.328,6.916 104.86,8.507 106.748,8.507ZM76.374,25.838C76.26,25.8 76.135,25.769 76.008,25.758C75.905,25.749 75.794,25.734 75.708,25.802C75.625,25.866 75.585,25.986 75.545,26.147C75.492,26.368 75.469,26.641 75.477,26.976C75.513,28.569 75.791,30.933 76.352,32.816C76.666,33.871 77.021,34.782 77.555,35.165C78.435,35.796 80.613,36.973 82.477,38.333C83.862,39.344 85.066,40.474 85.606,41.547C85.621,41.578 85.635,41.61 85.648,41.642C85.712,41.811 85.869,41.921 86.044,41.921C86.058,41.921 86.073,41.922 86.087,41.922C87.498,41.986 90.027,41.986 91.601,41.986C91.869,41.986 92.088,41.76 92.09,41.482C92.095,40.39 92.018,38.842 91.588,37.549C91.355,36.846 91.028,36.212 90.485,35.862C87.782,34.121 85.681,30.453 85.197,29.585C85.112,29.545 84.803,29.413 84.645,29.53C84.462,29.665 84.447,29.964 84.475,30.438C84.618,32.841 86.729,35.433 87.631,36.226C88,36.55 88.086,37.105 87.832,37.533C87.578,37.96 87.062,38.13 86.617,37.933C86.617,37.933 83.464,36.537 80.968,34.92C79.817,34.174 78.806,33.37 78.238,32.635C77.914,32.217 77.653,31.736 77.445,31.217C77.237,30.7 77.473,30.105 77.971,29.89C78.469,29.674 79.041,29.919 79.249,30.436C79.385,30.774 79.551,31.092 79.762,31.365C80.392,32.179 81.706,33.054 83.039,33.836C83.255,33.963 83.472,34.087 83.685,34.205C83.073,33.063 82.597,31.79 82.525,30.562C82.454,29.375 82.777,28.634 83.183,28.178C83.841,27.437 84.829,27.328 85.619,27.575C86.206,27.759 86.653,28.145 86.847,28.493C87.187,29.106 89.048,32.549 91.515,34.138C92.42,34.721 93.047,35.716 93.436,36.887C93.939,38.403 94.05,40.214 94.044,41.493C94.036,42.888 92.944,44.015 91.6,44.014C90.009,44.014 87.457,44.014 86.032,43.95C85.08,43.945 84.224,43.352 83.85,42.442C83.411,41.608 82.429,40.779 81.352,39.993C79.494,38.637 77.322,37.464 76.445,36.835C75.821,36.387 75.26,35.537 74.831,34.434C73.988,32.267 73.57,29.069 73.523,27.024C73.486,25.427 73.987,24.607 74.533,24.18C75.4,23.504 76.654,23.739 77.388,24.069C77.658,24.19 77.92,24.424 78.105,24.823C78.28,25.199 78.402,25.845 78.501,26.639C78.569,27.194 78.191,27.703 77.656,27.774C77.121,27.846 76.631,27.453 76.562,26.897C76.515,26.52 76.421,26.06 76.374,25.838ZM113.669,25.838C113.619,26.086 113.51,26.651 113.455,27.107C113.247,28.835 112.943,31.163 111.804,32.635C111.236,33.37 110.226,34.174 109.075,34.92C106.579,36.537 103.426,37.933 103.426,37.933C102.981,38.13 102.464,37.96 102.211,37.533C101.957,37.105 102.042,36.55 102.411,36.226C103.313,35.433 105.424,32.841 105.567,30.438C105.595,29.964 105.58,29.665 105.397,29.53C105.239,29.413 104.93,29.545 104.846,29.585C104.362,30.453 102.261,34.121 99.558,35.862C99.015,36.212 98.688,36.846 98.454,37.549C98.025,38.842 97.948,40.39 97.953,41.482C97.955,41.76 98.173,41.986 98.442,41.986C100.016,41.986 102.545,41.986 103.956,41.922C103.97,41.922 103.984,41.921 103.998,41.921C104.173,41.921 104.33,41.811 104.395,41.642C104.407,41.61 104.421,41.578 104.437,41.547C105.018,40.393 106.372,39.174 107.885,38.104C108.331,37.788 108.94,37.908 109.243,38.371C109.547,38.834 109.432,39.465 108.986,39.78C107.789,40.627 106.666,41.536 106.19,42.446C105.82,43.349 104.969,43.941 104.026,43.95C102.591,44.014 100.035,44.014 98.442,44.014C97.098,44.015 96.007,42.888 95.998,41.493C95.992,40.214 96.103,38.403 96.607,36.887C96.996,35.716 97.623,34.721 98.527,34.138C100.995,32.549 102.855,29.106 103.196,28.493C103.368,28.183 103.731,27.845 104.223,27.647C104.838,27.399 105.64,27.366 106.293,27.725C106.974,28.099 107.616,28.903 107.518,30.562C107.445,31.79 106.969,33.064 106.355,34.207C106.571,34.087 106.787,33.963 107.003,33.836C108.336,33.054 109.651,32.179 110.281,31.365C110.789,30.707 111.044,29.813 111.218,28.927C111.42,27.897 111.501,26.866 111.614,26.098C111.708,25.464 111.845,24.969 112.014,24.674C112.19,24.366 112.416,24.176 112.655,24.069C113.389,23.739 114.643,23.504 115.509,24.18C116.055,24.607 116.556,25.427 116.519,27.024C116.473,29.069 116.054,32.267 115.212,34.434C114.783,35.537 114.222,36.387 113.598,36.835C113.256,37.08 112.727,37.405 112.097,37.788C111.631,38.071 111.032,37.909 110.76,37.426C110.487,36.943 110.643,36.321 111.109,36.038C111.687,35.686 112.174,35.39 112.487,35.165C113.022,34.782 113.376,33.871 113.691,32.816C114.252,30.933 114.529,28.569 114.565,26.976C114.573,26.641 114.551,26.368 114.497,26.147C114.458,25.986 114.417,25.866 114.334,25.802C114.248,25.734 114.137,25.749 114.035,25.758C113.908,25.769 113.783,25.8 113.669,25.838ZM75.844,12.565C76.383,12.565 76.821,13.02 76.821,13.58C76.821,14.14 76.383,14.594 75.844,14.594C75.305,14.594 74.867,14.14 74.867,13.58C74.867,13.02 75.305,12.565 75.844,12.565Z" fill="#FFDB6E"/>
</g></g></g>

</svg>