<svg xmlns="http://www.w3.org/2000/svg" viewBox="0 0 25 31.25" x="0px" y="0px"><g data-name="Layer 16">
<path d="M21.5,6h-1a1.64,1.64,0,0,0-.5.09V5.5A1.5,1.5,0,0,0,18.5,4h-1A1.5,1.5,0,0,0,16,5.5V11H9V5.5A1.5,1.5,0,0,0,7.5,4h-1A1.5,1.5,0,0,0,5,5.5v.59A1.64,1.64,0,0,0,4.5,6h-1A1.5,1.5,0,0,0,2,7.5v10A1.5,1.5,0,0,0,3.5,19h1a1.64,1.64,0,0,0,.5-.09v.59A1.5,1.5,0,0,0,6.5,21h1A1.5,1.5,0,0,0,9,19.5V14h7v5.5A1.5,1.5,0,0,0,17.5,21h1A1.5,1.5,0,0,0,20,19.5v-.59a1.64,1.64,0,0,0,.5.09h1A1.5,1.5,0,0,0,23,17.5V7.5A1.5,1.5,0,0,0,21.5,6ZM4.5,18h-1a.5.5,0,0,1-.5-.5V7.5A.5.5,0,0,1,3.5,7h1a.5.5,0,0,1,.5.5v10A.5.5,0,0,1,4.5,18ZM8,19.5a.5.5,0,0,1-.5.5h-1a.5.5,0,0,1-.5-.5V5.5A.5.5,0,0,1,6.5,5h1a.5.5,0,0,1,.5.5v14ZM9,13V12h7v1Zm10,6.5a.5.5,0,0,1-.5.5h-1a.5.5,0,0,1-.5-.5V5.5a.5.5,0,0,1,.5-.5h1a.5.5,0,0,1,.5.5v14Zm3-2a.5.5,0,0,1-.5.5h-1a.5.5,0,0,1-.5-.5V7.5a.5.5,0,0,1,.5-.5h1a.5.5,0,0,1,.5.5Z" fill="#FFDB6E"/>

</g>

</svg>